<?xml version="1.0" encoding="UTF-8"?>
<svg id="Layer_1" data-name="Layer 1" xmlns="http://www.w3.org/2000/svg" viewBox="0 0 70.33 102.46">
  <defs>
    <style>
      .cls-1 {
        fill: #6cf;
      }

      .cls-1, .cls-2 {
        stroke: #ff6;
      }

      .cls-1, .cls-2, .cls-3 {
        stroke-miterlimit: 10;
      }

      .cls-2 {
        fill: none;
      }

      .cls-3 {
        fill: #f9f;
        stroke: #000;
      }
    </style>
  </defs>
  <path class="cls-1" d="m34.64.51C13.27,1.43-10.92,54.91,6.42,84.73c1.01,1.74,9.63,16.09,23.6,17.17,18.16,1.4,35.23-20.4,38.95-40.02C74.52,32.56,51.78-.22,34.64.51Z"/>
  <polyline class="cls-2" points="1.79 72.65 7.93 70.25 11.68 74.01 19.51 70.25 23.91 73.47 29.71 70.25 33.68 72.83 38.61 70.25 43.87 72.61 49.34 70.25 52.56 72.13 58.78 70.25 62.64 72.13 66.76 69.91"/>
  <polyline class="cls-2" points="1.43 48.95 7.56 46.55 11.32 50.31 19.15 46.55 23.55 49.77 29.34 46.55 33.31 49.13 38.25 46.55 43.5 48.91 48.98 46.55 52.19 48.43 58.42 46.55 62.28 48.43 66.39 46.21 69.83 48.26"/>
  <circle class="cls-3" cx="4.6" cy="54.77" r="1.18"/>
  <circle class="cls-3" cx="22.3" cy="54.77" r="1.18"/>
  <circle class="cls-3" cx="28.32" cy="54.77" r="1.18"/>
  <circle class="cls-3" cx="16.46" cy="54.77" r="1.18"/>
  <circle class="cls-3" cx="35.16" cy="54.77" r="1.18"/>
  <circle class="cls-3" cx="41.29" cy="54.77" r="1.18"/>
  <circle class="cls-3" cx="59.14" cy="54.77" r="1.18"/>
  <circle class="cls-3" cx="10.53" cy="54.77" r="1.18"/>
  <circle class="cls-3" cx="64.84" cy="54.77" r="1.18"/>
  <circle class="cls-3" cx="47.26" cy="54.77" r="1.18"/>
  <circle class="cls-3" cx="53.43" cy="54.77" r="1.18"/>
  <circle class="cls-3" cx="3.86" cy="62.93" r="1.18"/>
  <circle class="cls-3" cx="21.56" cy="62.93" r="1.18"/>
  <circle class="cls-3" cx="27.58" cy="62.93" r="1.18"/>
  <circle class="cls-3" cx="15.72" cy="62.93" r="1.18"/>
  <circle class="cls-3" cx="34.42" cy="62.93" r="1.18"/>
  <circle class="cls-3" cx="40.55" cy="62.93" r="1.18"/>
  <circle class="cls-3" cx="58.4" cy="62.93" r="1.18"/>
  <circle class="cls-3" cx="9.79" cy="62.93" r="1.18"/>
  <circle class="cls-3" cx="64.11" cy="62.93" r="1.18"/>
  <circle class="cls-3" cx="46.52" cy="62.93" r="1.18"/>
  <circle class="cls-3" cx="52.69" cy="62.93" r="1.18"/>
  <path class="cls-1" d="m64.11,27.14l-57.79,3.86,57.79-3.86Z"/>
</svg>