<?xml version="1.0" encoding="UTF-8"?>
<svg id="Layer_1" data-name="Layer 1" xmlns="http://www.w3.org/2000/svg" viewBox="0 0 74.42 128.29">
  <defs>
    <style>
      .cls-1 {
        fill: none;
      }

      .cls-1, .cls-2, .cls-3 {
        stroke: #000;
        stroke-miterlimit: 10;
      }

      .cls-2 {
        fill: #fff;
      }

      .cls-3 {
        fill: red;
      }
    </style>
  </defs>
  <path class="cls-3" d="m47.88,41.01c2.07,2.45,10.16,12.52,7.16,22.54-.34,1.12-.61,2-1.37,2.89-5.6,6.5-28.15,2.29-39-12.13-6.9-9.17-9.65-23.23-3.56-35.51.81-1.63,7.72-14.99,23.37-17.81,15.84-2.85,27.07,7.54,28.61,9.02,7.97,7.63,13.29,20.19,9.68,32.95-3.87,13.69-15.76,19.65-17.73,20.6"/>
  <path class="cls-2" d="m36.03,9.01c-1.32.72-8.55,4.79-10.24,12.91-1.87,8.97,3.55,20.33,12.47,21.59,6.31.9,12.55-3.51,15.25-8.79,4.36-8.51-.46-19.37-7.9-23.6-3.65-2.07-7.35-2.23-9.57-2.11Z"/>
  <path class="cls-3" d="m23.09,62.25s-18.78,17.32-17.89,28.34l17.36,4.45s.35-20.91,8.74-28.43c0,0,13.32,4.52,17.69,2.33"/>
  <path class="cls-1" d="m37.27,110.7h0s-1.5,15.99,3.02,15.1"/>
  <path class="cls-1" d="m5.2,90.59s-7.02,4.82-3.9,8.16"/>
  <path class="cls-1" d="m7.03,91.06s-4.18,8.69-.84,9.7"/>
  <path class="cls-1" d="m11.38,92.18s-2.62,6.47-1.4,10.36"/>
  <path class="cls-1" d="m15.56,93.25s-3.55,10.4,0,11.85"/>
  <path class="cls-1" d="m18.85,94.09s-3.08,11.9,1.37,14.57"/>
  <path class="cls-1" d="m25.43,113.7s-.42,7.65,1.25,8.77"/>
  <path class="cls-1" d="m31.93,111.74s-.91,15.06,2.54,16.06"/>
  <path class="cls-1" d="m41.93,110.29s-2.67,14.69,2,15.55"/>
  <path class="cls-1" d="m46.39,110.46s-.9,15.63,3.44,15.38"/>
  <path class="cls-1" d="m51.77,111.74s-1.18,12.28,3.39,12.61"/>
  <path class="cls-1" d="m55.16,113.52s1.01,10.17,4.57,8.94"/>
  <path class="cls-3" d="m49.48,68.82c6.33-.54,5.68,44.7,5.68,44.7-11.82-8.13-33.26,1.56-33.26,1.56l.67-20.03c.7-21.22,8.74-28.43,8.74-28.43l.51.2,18.01,1.91"/>
  <line class="cls-2" x1="22.78" y1="62.03" x2="31.31" y2="66.61"/>
</svg>