<?xml version="1.0" encoding="UTF-8"?>
<svg id="Layer_1" data-name="Layer 1" xmlns="http://www.w3.org/2000/svg" viewBox="0 0 87.04 89.67">
  <defs>
    <style>
      .cls-1 {
        fill: none;
      }

      .cls-1, .cls-2, .cls-3, .cls-4, .cls-5 {
        stroke: #000;
        stroke-miterlimit: 10;
      }

      .cls-2 {
        fill: #ff3;
      }

      .cls-3 {
        fill: #fff;
      }

      .cls-4 {
        fill: #f03;
      }

      .cls-5 {
        fill: #9cf;
      }
    </style>
  </defs>
  <path class="cls-1" d="m45.61,23.35s3.81-19.61,14.72-19.38"/>
  <path class="cls-3" d="m63.71,3.76s33.74,15.77,19.19,61.75c0,0-12.35-12.57-28.01-3.2,0,0-4.41-12.46-16.98-14.78,0,0-9.48-11.14-23.71-6.4,0,0,1.21-13.01-13.45-18.3,0,0,19.63-32.53,62.96-19.08Z"/>
  <path class="cls-5" d="m65.75,8.27s13.1,28.18,5.34,50.86c-.02.05-.04.1-.05.15,0,0,7.51,1.48,11.87,6.23,0,0,14.2-38.17-15.15-59.3"/>
  <line class="cls-5" x1="37.35" y1="47.38" x2="8.57" y2="89.39"/>
  <path class="cls-1" d="m58.59,6.34s-25.67,17.26-34.09,33.88"/>
  <path class="cls-2" d="m59.23,2.51l-.64.47c-2.9.44-1.78,1.69-1.78,1.69,0,0-38.63,11.24-48.15,22.89,0,0-.9-2.16-7.91-4.73,0,0,15.64-29.39,58.44-20.34"/>
  <path class="cls-3" d="m58.52,6.21S26.97,28.91,24.5,40.23"/>
  <path class="cls-4" d="m61.28,7.62s-1.7,16.54-3.45,26.16c-1.81,9.92-8.91,19.58-8.91,19.58-5.82-5.31-11.56-6.18-11.56-6.18-4.01-5.21-13.02-7.16-13.02-7.16C26.97,29.02,58.14,6.34,58.14,6.34"/>
  <ellipse class="cls-3" cx="62.15" cy="5.63" rx="2.1" ry="5.61" transform="translate(37.02 62.76) rotate(-71.43)"/>
</svg>